PathFileType	4	(X/Y/Z)	s06c0301.trc
DataRate	CameraRate	NumFrames	NumMarkers	Units	OrigDataRate	OrigDataStartFrame	OrigNumFrames
200	200	4	48	mm	200	250	2000
Frame#	Time	racr			lacr			c7			jug			rlel			rdr			llel			ldr			s2			lic			ric			lasi			rasi			rpsi			lpsi			rgt			lgt			rth1			rth2			rth3			rth4			rlfc			rmfc			rsh1			rsh2			rsh3			rsh4			rlmal			rcal			rtoe			rmt5			lth1			lth2			lth4			lth3			llfc			lmfc			llmal			lcal			lmt5			lsh1			lsh2			lsh3			lsh4			ltoe			SBIKE			LBIKE			RBIKE			
		X1	Y1	Z1	X2	Y2	Z2	X3	Y3	Z3	X4	Y4	Z4	X5	Y5	Z5	X6	Y6	Z6	X7	Y7	Z7	X8	Y8	Z8	X9	Y9	Z9	X10	Y10	Z10	X11	Y11	Z11	X12	Y12	Z12	X13	Y13	Z13	X14	Y14	Z14	X15	Y15	Z15	X16	Y16	Z16	X17	Y17	Z17	X18	Y18	Z18	X19	Y19	Z19	X20	Y20	Z20	X21	Y21	Z21	X22	Y22	Z22	X23	Y23	Z23	X24	Y24	Z24	X25	Y25	Z25	X26	Y26	Z26	X27	Y27	Z27	X28	Y28	Z28	X29	Y29	Z29	X30	Y30	Z30	X31	Y31	Z31	X32	Y32	Z32	X33	Y33	Z33	X34	Y34	Z34	X35	Y35	Z35	X36	Y36	Z36	X37	Y37	Z37	X38	Y38	Z38	X39	Y39	Z39	X40	Y40	Z40	X41	Y41	Z41	X42	Y42	Z42	X43	Y43	Z43	X44	Y44	Z44	X45	Y45	Z45	X46	Y46	Z46	X47	Y47	Z47	X48	Y48	Z48	
250	1.2500	413.728667	1286.308921	-66.763923	432.394709	1294.828641	-393.698307	412.994383	1395.799425	-228.774851	428.332891	1223.173089	-218.341079	508.022496	1062.900940	17.262625	709.952173	919.910106	-56.205936	505.787493	1054.802257	-474.730758	709.298518	923.783483	-403.656963	-104.374215	1162.228709	-228.994341	85.202528	1093.778583	-393.531398	45.720216	1119.265178	-55.963129	83.227066	1035.473375	-361.851321	0.000000	0.000000	-0.000000	-61.938432	1195.270627	-204.022067	-63.900814	1187.288519	-265.570722	-3.471343	1072.551797	-22.529374	31.482774	1038.864378	-425.516308	98.779393	996.943540	-18.270183	184.098275	965.003719	-20.099162	239.067030	897.711327	-24.401710	202.392150	993.333489	-37.679937	303.002896	812.862831	-42.148518	306.241009	787.914804	-151.789294	282.920333	691.433079	-17.966817	289.374243	606.369000	-40.661085	256.178219	526.291513	-45.149431	313.036326	607.493564	-72.021270	239.120721	441.153684	-53.020419	181.969293	404.531414	-104.522171	457.029830	424.823463	-104.024908	364.317247	388.823347	-33.756511	72.338365	926.785077	-433.780528	139.336549	871.717093	-425.517025	168.033249	892.503688	-413.665355	170.258130	788.100722	-418.919115	194.995709	680.552810	-393.070035	194.947669	662.436614	-278.873724	-13.960355	372.042348	-388.029842	-90.407133	370.820855	-342.024681	76.870744	262.996222	-406.762921	137.711105	591.519003	-417.623264	109.014641	511.136042	-399.139991	42.992029	451.194023	-397.845077	130.885632	501.122881	-368.396043	157.800210	239.093848	-346.109749	-204.684409	866.434149	-221.367791	-49.028512	79.773763	-420.071253	-50.239312	79.847953	-22.558760	
251	1.2550	413.635574	1286.337955	-66.681797	432.387698	1294.823219	-393.619445	412.996978	1395.788052	-228.668943	428.348775	1223.219867	-218.254666	508.107289	1062.994911	17.284342	709.977067	919.879514	-56.213272	505.831465	1054.840429	-474.698286	709.319696	923.782136	-403.657395	-104.374274	1162.212661	-228.939961	85.201235	1093.751662	-393.369890	45.694576	1119.274547	-55.918109	83.281339	1035.490925	-361.782208	0.000000	0.000000	-0.000000	-61.942625	1195.260360	-204.083379	-63.896375	1187.274010	-265.533116	-3.511018	1072.537598	-22.497215	31.528780	1038.831790	-425.431937	98.759167	996.937286	-18.237043	184.113625	965.069931	-20.046367	239.125532	897.813563	-24.329539	202.417437	993.433545	-37.606069	303.076468	812.959149	-42.082119	306.351122	788.079742	-151.709233	282.965643	691.544472	-17.906465	289.360806	606.484211	-40.639414	256.134078	526.439321	-45.133318	313.016904	607.591960	-72.002570	239.017495	441.305516	-53.010720	181.882457	404.662856	-104.491861	456.952169	425.002918	-104.023775	364.244082	388.978629	-33.743648	72.339672	926.693948	-433.732846	139.322645	871.593502	-425.432560	168.003257	892.381869	-413.622735	170.167254	787.974198	-418.847004	194.999212	680.273612	-393.126342	194.855067	662.323120	-278.804674	-13.955833	371.836711	-388.024761	-90.386966	370.614988	-342.045278	76.902930	262.812266	-406.753539	137.656705	591.372881	-417.575645	108.978313	510.986799	-399.093241	42.995441	451.002750	-397.841027	130.849946	500.980609	-368.338958	157.862571	238.972773	-346.106405	-204.684683	866.434096	-221.367027	-49.020146	79.789801	-420.074842	-50.240216	79.826345	-22.558152	
252	1.2600	413.543831	1286.407355	-66.591598	432.366667	1294.822642	-393.556185	412.996109	1395.788957	-228.580080	428.344076	1223.215821	-218.148505	508.237568	1063.121551	17.289538	710.042376	919.863461	-56.207402	505.884471	1054.872263	-474.664841	709.325265	923.791715	-403.639827	-104.395598	1162.213830	-228.897151	85.208407	1093.758242	-393.239158	45.693324	1119.190130	-55.852689	83.335053	1035.384082	-361.713323	0.000000	0.000000	-0.000000	-61.957576	1195.247858	-203.968425	-63.897383	1187.275908	-265.490499	-3.563252	1072.524424	-22.436300	31.576017	1038.792953	-425.337767	98.732474	996.993555	-18.201558	184.089495	965.148738	-20.003266	239.154143	897.944585	-24.241598	202.426121	993.561153	-37.535753	303.117083	813.106368	-42.015924	306.443560	788.259520	-151.670416	282.985960	691.652393	-17.845391	289.361787	606.649095	-40.600652	256.079473	526.575632	-45.113432	313.006419	607.702980	-71.954929	238.929186	441.439496	-53.006894	181.779464	404.797989	-104.494749	456.852822	425.234227	-104.046109	364.203511	389.112062	-33.727685	72.350825	926.617391	-433.680804	139.299904	871.473117	-425.368964	167.980965	892.233482	-413.569780	170.090239	787.824245	-418.768013	194.898027	680.153079	-393.101221	194.713404	662.170018	-278.777172	-13.940950	371.616999	-388.029374	-90.369080	370.359199	-342.020380	76.968016	262.621300	-406.740207	137.608614	591.170582	-417.536493	108.949303	510.814394	-399.079314	43.016183	450.771418	-397.835883	130.809029	500.800400	-368.297260	157.929718	238.811608	-346.108027	-204.691199	866.433784	-221.385680	-49.024274	79.797526	-420.084957	-50.239112	79.837196	-22.548249	
253	1.2650	413.443753	1286.482920	-66.471317	432.349410	1294.809866	-393.504158	412.973207	1395.786907	-228.493654	428.279515	1223.193854	-218.135926	508.351566	1063.260958	17.277860	710.084685	919.860201	-56.191849	505.938957	1054.921381	-474.648390	709.327160	923.790712	-403.636370	-104.408397	1162.206518	-228.859908	85.226412	1093.754970	-393.116850	45.585012	1119.227237	-55.817002	83.364414	1035.484193	-361.544132	0.000000	0.000000	-0.000000	-61.980197	1195.272901	-203.978594	-63.903866	1187.265698	-265.462190	-3.573015	1072.496360	-22.411068	31.637640	1038.771029	-425.261055	98.736549	997.095862	-18.236382	184.096165	965.239925	-19.949264	239.178858	898.040348	-24.193741	202.429973	993.642754	-37.476080	303.191204	813.205364	-41.950271	306.515143	788.394044	-151.610169	282.999040	691.738537	-17.789193	289.351146	606.751416	-40.556157	256.009930	526.687765	-45.076279	312.983507	607.791294	-71.949315	238.834636	441.573744	-53.003799	181.686172	404.908909	-104.465887	456.767987	425.417952	-104.048241	364.117090	389.301499	-33.729307	72.366820	926.542726	-433.604645	139.291970	871.366170	-425.316260	167.990116	892.105567	-413.502412	170.035758	787.653286	-418.690019	194.799180	680.008483	-393.071554	194.616748	662.018527	-278.753388	-13.921050	371.386909	-388.025065	-90.353262	370.127359	-342.050171	77.018918	262.470924	-406.753797	137.555058	591.017936	-417.518259	108.945997	510.619975	-399.045531	43.019201	450.514828	-397.814687	130.773407	500.662536	-368.253892	157.992238	238.694973	-346.115287	-204.684388	866.429646	-221.360512	-49.021828	79.785547	-420.082762	-50.225579	79.796681	-22.565712	
